HIERARCHY
ROOT Hips
{
   OFFSET 0.00000 0.00000 0.00000
   CHANNELS 6 Xposition Yposition Zposition Zrotation Xrotation Yrotation
   JOINT RightUpLeg
   {
      OFFSET -8.945800 -8.667070 0.101652
      CHANNELS 3 Zrotation Xrotation Yrotation
      JOINT RightLeg
      {
         OFFSET 0.000000 -44.422697 1.372700
         CHANNELS 3 Zrotation Xrotation Yrotation
         JOINT RightFoot
         {
            OFFSET 0.253549 -42.092399 -1.460590
            CHANNELS 3 Zrotation Xrotation Yrotation
            JOINT RightToes
            {
               OFFSET 0.040000 -4.415090 8.499099
               CHANNELS 3 Zrotation Xrotation Yrotation
               End Site
               {
                  OFFSET -0.080000 -0.137448 9.779790
               }
            }
         }
      }
   }
   JOINT Spine
   {
      OFFSET 0.000000 11.890501 0.000000
      CHANNELS 3 Zrotation Xrotation Yrotation
      JOINT Spine1
      {
         OFFSET 0.000000 25.657401 0.127663
         CHANNELS 3 Zrotation Xrotation Yrotation
         JOINT HEad
         {
            OFFSET 0.000000 8.734161 0.011341
            CHANNELS 3 Zrotation Xrotation Yrotation
            End Site
            {
               OFFSET -0.290000 12.774200 2.513950
            }
         }
         JOINT LeftShoulder1
         {
            OFFSET 8.990000 -0.362252 -0.220000
            CHANNELS 3 Zrotation Xrotation Yrotation
            JOINT LeftArm
            {
               OFFSET 10.282700 -0.003380 0.322123
               CHANNELS 3 Zrotation Xrotation Yrotation
               JOINT LeftForeArm
               {
                  OFFSET 32.766900 0.099144 -1.424340
                  CHANNELS 3 Zrotation Xrotation Yrotation
                  JOINT LeftHand
                  {
                     OFFSET 27.564301 0.085362 1.022160
                     CHANNELS 3 Zrotation Xrotation Yrotation
                     End Site
                     {
                        OFFSET 16.744301 -0.600000 1.502910
                     }
                  }
               }
            }
         }
         JOINT RightShoulder
         {
            OFFSET -8.990000 -0.362252 -0.220000
            CHANNELS 3 Zrotation Xrotation Yrotation
            JOINT RightArm
            {
               OFFSET -10.282700 -0.003380 0.322123
               CHANNELS 3 Zrotation Xrotation Yrotation
               JOINT RightForeArm
               {
                  OFFSET -32.897098 0.099144 -1.424340
                  CHANNELS 3 Zrotation Xrotation Yrotation
                  JOINT RightHand
                  {
                     OFFSET -27.492101 0.085362 1.022160
                     CHANNELS 3 Zrotation Xrotation Yrotation
                     End Site
                     {
                        OFFSET -16.631201 -0.600000 1.502910
                     }
                  }
               }
            }
         }
      }
   }
   JOINT LeftUpLeg
   {
      OFFSET 8.945800 -8.667070 0.101652
      CHANNELS 3 Zrotation Xrotation Yrotation
      JOINT LeftLeg
      {
         OFFSET 0.000000 -44.422697 1.372700
         CHANNELS 3 Zrotation Xrotation Yrotation
         JOINT LeftFoot
         {
            OFFSET -0.253549 -42.092399 -1.460590
            CHANNELS 3 Zrotation Xrotation Yrotation
            JOINT LeftToes
            {
               OFFSET -0.040000 -4.415090 8.499099
               CHANNELS 3 Zrotation Xrotation Yrotation
               End Site
               {
                  OFFSET 0.080000 -0.047448 9.779790
               }
            }
         }
      }
   }
}
MOTION
Frames: 10
Frame Time: 0.016667
-215.790536 102.239302 386.299395 21.062391 24.385882 104.766790 -23.404562 20.188605 -21.361213 20.506663 9.228449 12.177156 -52.100007 17.556450 27.207483 5.195167 -0.902512 -45.729045 -31.267926 23.740769 -26.447973 -8.739649 15.264940 19.207050 -14.158951 13.225625 3.209189 -11.894750 -19.365446 -2.713511 -72.802932 -43.698413 -93.254594 -30.703712 9.959948 -28.977740 -20.775342 -9.234867 -19.800066 -82.822293 46.328104 102.486435 94.814446 -83.537018 152.695094 5.880100 -24.579172 105.541620 -8.674103 15.396811 8.616336 9.034717 -14.932607 -38.447275 -58.043617 15.576123 113.910412 -11.812927 -2.075600 2.603781 3.298726 14.595237 1.010930
-213.822629 101.315783 386.387285 24.200878 26.992894 102.111075 -26.478550 21.075116 -16.102099 20.059709 13.563639 7.367655 -52.599755 13.996697 26.763932 4.687948 -1.870037 -46.189154 -33.779882 23.539361 -20.685315 -8.196234 16.780629 19.219457 -14.849236 14.812966 1.517223 -11.728511 -17.502998 -4.088503 -57.365939 -42.744010 -78.966713 -22.875378 2.988713 -33.340554 -22.875062 -14.331021 -35.794119 -82.301847 46.720577 101.833667 92.727229 -81.291361 151.386239 7.000062 -21.617236 101.956399 -12.924490 16.582567 7.600706 6.575144 -14.189938 -28.695868 -54.623970 26.952205 101.972600 -22.707304 -2.137901 3.373464 3.349444 13.809490 1.699176
-211.735226 100.553006 386.373705 29.838108 28.537727 97.673918 -29.047787 23.756779 -8.832526 19.593700 17.624844 2.583965 -53.111080 10.133462 26.606983 3.814387 -3.484530 -46.844029 -35.689320 22.748877 -15.208325 -7.315425 18.709835 18.522957 -15.768234 15.597816 0.378060 -13.238492 -18.075136 -5.349077 -42.132657 -41.434923 -64.494854 -16.466340 -8.662512 -35.873086 -26.864066 -13.392568 -13.935042 -82.623589 47.779014 102.733114 90.713047 -79.014135 149.935698 7.137503 -16.655012 102.133499 -4.571237 21.667223 5.138636 6.187091 -12.467995 -17.013002 -46.597460 39.435579 86.047994 -38.056673 -3.004872 4.088319 3.391216 12.687397 2.498503
-209.734856 100.209845 386.336512 36.200802 28.492366 92.506941 -30.624263 26.897772 -0.962103 19.676590 21.025072 -2.023298 -53.561947 7.822796 26.624327 3.018587 -5.181128 -47.718608 -36.919170 24.072797 -9.181358 -7.135147 20.940108 18.546868 -18.029015 15.149945 0.554895 -13.130512 -17.159686 -6.348622 -27.471969 -35.569542 -51.821089 -14.775731 -20.287398 -36.558048 -31.601305 -18.851969 -35.556462 -87.231003 48.279216 102.559436 87.776270 -78.128847 147.874839 5.445268 -10.936974 100.422489 -1.877794 22.670315 3.711255 7.176510 -13.099141 -4.178493 -33.105804 47.468899 66.690821 -27.719933 -1.222889 5.458379 3.446734 11.871472 3.681253
-207.749306 99.995354 386.246485 40.947312 28.956300 88.681783 -33.483790 29.344077 5.814863 20.515057 23.284263 -6.392605 -51.619885 5.385529 27.164475 2.157218 -7.092938 -48.614401 -36.039278 26.646059 -6.570997 -7.390584 21.314358 17.601835 -20.044240 13.779990 1.520756 -16.685051 -18.735890 -6.603286 -18.959625 -29.435899 -40.140520 -12.598789 -37.085291 -36.041464 -32.460703 -15.562610 -12.167541 -90.549348 47.503149 103.795380 86.584293 -75.949928 147.899455 4.653079 -8.439039 99.798332 2.892959 25.380711 2.908074 9.644704 -14.045212 7.671324 -18.707263 48.719770 46.338650 -28.180927 -1.379370 6.457526 3.504204 10.759022 4.738123
-205.653760 99.733809 386.011003 44.393317 30.166446 84.781362 -37.496857 30.712226 11.640913 21.183570 24.784614 -10.538790 -49.737492 2.780600 27.598194 1.248439 -9.160677 -49.686317 -31.864332 29.854654 -7.105948 -8.019717 21.984029 15.473360 -23.618932 11.695657 3.484257 -19.819732 -18.533081 -7.356048 -13.070166 -19.705275 -30.083630 -14.000485 -49.745682 -40.346272 -35.947221 -20.441638 -30.062388 -93.281458 46.145332 104.861272 86.562232 -73.338220 149.581088 5.271183 -8.297761 100.359036 -0.707839 25.899857 4.372895 12.841433 -14.783420 16.512303 -8.457942 44.807824 30.350232 -28.698409 -0.763458 6.554221 3.509274 8.783062 4.938984
-203.324220 99.280041 385.415720 46.760254 31.047950 81.760137 -40.994102 32.318536 16.152839 21.796583 23.931169 -14.582450 -49.536685 0.346668 28.035954 0.624307 -10.826653 -50.682500 -28.850651 32.359500 -6.908501 -9.247585 23.327109 14.562976 -26.883476 8.933562 4.563999 -21.550235 -19.984778 -7.370860 -11.464765 -12.386934 -25.334591 -15.659168 -58.171628 -44.552726 -34.401026 -16.900022 -18.174397 -90.843825 41.358814 106.889742 81.996926 -76.024343 140.954641 5.268701 -6.840220 99.414428 -0.427948 27.934524 5.609362 17.472876 -15.367342 22.172548 -3.342019 37.002423 19.719605 -26.193775 1.806181 6.930695 3.516844 7.414123 5.014535
-200.662763 98.675688 384.482302 50.135720 31.582296 78.771110 -45.806869 34.703413 20.335732 22.460744 24.218135 -16.808474 -49.150482 -2.164038 28.486124 0.176011 -12.217993 -51.513058 -24.565878 33.289891 -8.988981 -10.110988 24.235340 13.132637 -31.213015 7.011865 5.770527 -21.194057 -19.677007 -6.952105 -12.286679 -4.952747 -21.999145 -17.118998 -60.519321 -49.476838 -21.891439 -15.961198 -42.666003 -87.557397 36.499588 107.481687 78.554894 -77.140587 135.755173 6.980163 -4.328673 99.812881 -15.387132 29.424861 21.268663 22.462219 -15.551700 25.819054 -0.385259 28.304290 13.465686 -25.043988 3.498331 7.860060 3.568903 5.804674 5.939004
-197.604806 97.792214 383.089708 53.951637 31.989765 76.649694 -50.947737 37.854732 24.849925 22.653676 25.641982 -17.048451 -47.880241 -4.724520 28.635331 0.308340 -13.013088 -52.766746 -19.959961 32.785591 -12.013050 -10.180117 22.790188 12.493189 -36.031113 6.376428 6.944112 -21.733267 -22.284033 -6.230924 -15.958944 -6.330852 -18.158584 -20.140691 -63.387762 -53.108481 -34.749472 -12.157121 -25.019413 -89.554217 35.980812 108.321555 82.227971 -73.769724 143.530907 10.112566 -3.717715 100.858842 -6.849019 28.147244 -0.740812 27.661571 -15.281027 28.209851 0.910411 17.114644 9.230815 -24.700739 5.418430 9.046015 3.589166 4.754116 6.613797
-194.213120 96.700724 381.405634 57.303539 31.602445 74.330121 -57.470393 40.757037 29.112899 22.438712 26.577060 -15.139538 -46.323856 -7.000431 28.928102 0.886337 -13.075431 -53.589866 -13.775212 32.045543 -16.527460 -10.011978 22.380629 11.356863 -39.899943 6.930797 7.763782 -20.813470 -24.048775 -5.283602 -18.813903 -10.325778 -13.659966 -23.677978 -59.895903 -55.043368 -32.070146 -16.449964 -32.076337 -93.622182 35.227107 108.981091 84.000774 -72.160860 148.436185 11.999613 -1.623330 100.419941 -10.870626 27.353002 2.135449 31.547568 -13.526250 29.033099 2.250789 7.225708 6.394217 -25.688393 8.818207 11.581664 3.625525 4.211630 7.933331
